<svg width="45" height="66" viewBox="0 0 45 66" fill="none" xmlns="http://www.w3.org/2000/svg">
<path d="M38.1715 30.7763V41.6453C38.1715 41.6453 38.2765 44.3803 35.3465 44.3803C32.2775 44.3803 32.2215 41.6453 32.2215 41.6453V35.2293C32.2215 34.9893 31.8855 33.3203 29.9025 33.3203C27.2775 33.3203 27.2325 35.1973 27.2325 35.1973V54.4183C27.2325 54.4183 27.2615 56.2813 24.7685 56.2813C22.2615 56.2813 22.2615 54.2983 22.2615 54.2983V40.3543C22.2615 40.3543 22.2615 37.4093 18.4565 37.4093C14.4025 37.4093 14.4895 40.5343 14.4895 40.5343V44.2623C14.4895 44.2623 14.3685 47.2073 9.80147 47.2073C5.23447 47.2073 5.17347 42.6983 5.17347 42.6983V30.2763C3.42947 29.3143 0.261475 27.0093 0.261475 27.0093V56.3413C0.261475 56.3413 3.24948 65.3383 22.2615 65.3383C41.2735 65.3383 44.2615 56.6433 44.2615 56.6433V27.0093C41.3235 29.8383 38.1715 30.7763 38.1715 30.7763Z" fill="white"/>
<path fill-rule="evenodd" clip-rule="evenodd" d="M22.2615 0.338257C1.94947 0.338257 0.261475 20.2133 0.261475 20.2133V23.2753C8.69947 29.5263 22.2615 29.3383 22.2615 29.3383C22.2615 29.3383 35.8235 29.5263 44.2615 23.2763V20.2143C44.2615 20.2133 42.5735 0.338257 22.2615 0.338257ZM22.2615 25.3383C10.5115 25.3383 7.94947 22.9633 7.94947 22.9633C14.1995 20.0883 22.2615 20.2133 22.2615 20.2133C22.2615 20.2133 30.3235 20.0883 36.5735 22.9633C36.5735 22.9633 34.0115 25.3383 22.2615 25.3383ZM4.57347 15.9013C4.57347 15.9013 12.6995 12.9633 22.2615 12.9633C31.8235 12.9633 39.9495 15.9003 39.9495 15.9003C35.3865 2.96226 22.2615 3.40026 22.2615 3.40026C22.2615 3.40026 9.13647 2.96326 4.57347 15.9013Z" fill="white"/>
</svg>
