<svg width="79" height="64" viewBox="0 0 79 64" fill="none" xmlns="http://www.w3.org/2000/svg">
<path d="M26.2444 63.3383C30.3865 63.3383 33.7444 59.9804 33.7444 55.8383C33.7444 51.6961 30.3865 48.3383 26.2444 48.3383C22.1022 48.3383 18.7444 51.6961 18.7444 55.8383C18.7444 59.9804 22.1022 63.3383 26.2444 63.3383Z" fill="white"/>
<path d="M60.2434 63.3383C64.3855 63.3383 67.7434 59.9804 67.7434 55.8383C67.7434 51.6961 64.3855 48.3383 60.2434 48.3383C56.1013 48.3383 52.7434 51.6961 52.7434 55.8383C52.7434 59.9804 56.1013 63.3383 60.2434 63.3383Z" fill="white"/>
<path fill-rule="evenodd" clip-rule="evenodd" d="M11.3235 0.338257H64.2615C64.2615 0.338257 78.2615 15.1503 78.2615 34.0263V49.2763C78.2615 49.2763 78.0735 53.3383 75.1365 53.3393H73.4275C72.2535 47.0783 66.7685 42.3393 60.1675 42.3393C53.5675 42.3393 48.0815 47.0783 46.9075 53.3393H39.5035C38.3295 47.0783 32.8445 42.3393 26.2445 42.3393C19.6445 42.3393 14.1585 47.0783 12.9855 53.3393H10.8865C10.8865 53.3393 8.32247 52.7153 8.32247 49.5273V33.9123L23.0735 33.1523C23.0735 33.1523 28.5565 32.5493 29.3635 29.3963L5.70747 28.1423C3.84351 28.1423 2.33247 26.6312 2.33247 24.7673C2.33247 22.9033 3.84351 21.3923 5.70747 21.3923H14.7635L23.0735 20.9643C23.0735 20.9643 31.2505 20.3563 32.0115 17.1593L31.8155 17.1163L3.73047 15.2763C1.8146 15.2763 0.261475 13.7231 0.261475 11.8073C0.261475 9.89138 1.8146 8.33826 3.73047 8.33826H8.32347V3.46326C8.32347 3.46326 8.13548 0.338257 11.3235 0.338257ZM52.2615 9.27626V24.2763H68.0735L62.3235 9.27626H52.2615Z" fill="white"/>
</svg>
