<svg width="24" height="23" viewBox="0 0 24 23" fill="none" xmlns="http://www.w3.org/2000/svg">
<path d="M0.714164 7.44782L7.64381 0.518176L8.63376 1.50812L5.7629 8.43777L5.8124 8.48727L10.7126 3.58702L11.6036 4.47797L4.67396 11.4076L3.68401 10.4177L6.55486 3.48802L6.50537 3.43853L1.60512 8.33877L0.714164 7.44782ZM6.06028 12.7939L12.9899 5.86429L16.3557 9.23011L15.6628 9.92308L13.1879 7.44821L10.911 9.72509L13.0889 11.903L12.3959 12.5959L10.2181 10.4181L7.64419 12.9919L10.1191 15.4668L9.4261 16.1598L6.06028 12.7939ZM11.1604 17.8941L16.9516 9.82602L17.8426 10.717L13.3878 16.9536L13.4373 17.0031L18.5851 14.0333L19.476 14.9243L16.5062 20.072L16.5557 20.1215L22.7923 15.6667L23.6833 16.5577L15.6152 22.3489L14.5263 21.2599L17.5654 15.9835L17.5258 15.9439L12.2494 18.983L11.1604 17.8941Z" fill="white"/>
</svg>
