<svg width="79" height="63" viewBox="0 0 79 63" fill="none" xmlns="http://www.w3.org/2000/svg">
<path fill-rule="evenodd" clip-rule="evenodd" d="M0.261475 46.2133C0.261475 37.3063 7.48147 30.0873 16.3865 30.0873C25.2925 30.0873 32.5125 37.3063 32.5115 46.2133C32.5115 55.1183 25.2915 62.3383 16.3865 62.3383C7.48147 62.3383 0.261475 55.1183 0.261475 46.2133ZM11.2194 51.3804C12.5897 52.7508 14.4485 53.5205 16.3865 53.5203C18.3245 53.5205 20.1832 52.7508 21.5536 51.3804C22.924 50.01 23.6937 48.1513 23.6935 46.2133C23.6935 42.1777 20.422 38.9063 16.3865 38.9063C12.3509 38.9063 9.07947 42.1777 9.07947 46.2133C9.07921 48.1513 9.84897 50.01 11.2194 51.3804ZM61.1155 46.2123C56.663 46.2123 53.0535 49.8218 53.0535 54.2743C53.0535 57.1546 54.5901 59.816 57.0845 61.2562C59.5789 62.6963 62.6521 62.6963 65.1465 61.2562C67.6409 59.816 69.1775 57.1546 69.1775 54.2743C69.178 52.1359 68.3288 50.085 66.8168 48.573C65.3047 47.061 63.2538 46.2118 61.1155 46.2123ZM56.0535 54.2743C56.0529 57.0705 58.3193 59.3377 61.1155 59.3383C63.9117 59.3388 66.1789 57.0725 66.1795 54.2763C66.18 51.4801 63.9137 49.2128 61.1175 49.2123C58.3213 49.2117 56.054 51.4781 56.0535 54.2743Z" fill="white"/>
<path fill-rule="evenodd" clip-rule="evenodd" d="M75.6986 31.6513C76.1366 34.9633 78.1596 50.0653 78.1596 50.0653C78.1596 50.0653 78.9026 53.2133 75.2616 53.2133H73.3066C72.9176 46.8113 67.6166 41.7343 61.1156 41.7343C54.6146 41.7343 49.3146 46.8113 48.9246 53.2133H38.7606C39.4516 51.0023 39.8246 48.6513 39.8246 46.2133C39.8246 33.2673 29.3306 22.7743 16.3866 22.7743C11.7267 22.7668 7.17129 24.1551 3.30759 26.7603C3.26259 23.8013 3.26559 12.8753 5.57359 6.50526C5.57359 6.50526 6.63659 3.96326 9.01159 3.33826C11.3866 2.71326 33.7616 0.338257 33.7616 0.338257C33.7616 0.338257 36.0756 0.400257 36.8876 2.21326C37.6996 4.02626 47.4496 24.0883 47.4496 24.0883L59.2616 25.4663V20.1713H63.2616V14.3383H66.2616V26.2843L72.0736 26.9633C72.0736 26.9633 75.1516 27.5103 75.6986 31.6513ZM16.3866 20.1713H23.3446V6.50526H16.3866V20.1713ZM33.3446 20.1713H26.3866V6.50526H33.3446V20.1713ZM49.2616 36.3383H53.2776V29.3383H49.2616V36.3383ZM60.2776 36.3383H56.2616V29.3383H60.2776V36.3383ZM63.2616 36.3383H67.2776V29.3383H63.2616V36.3383Z" fill="white"/>
</svg>
