<svg width="76" height="62" viewBox="0 0 76 62" fill="none" xmlns="http://www.w3.org/2000/svg">
<path fill-rule="evenodd" clip-rule="evenodd" d="M2.36447 0.338257C0.428475 0.338257 0.261475 2.37926 0.261475 2.37926V18.1913C0.261475 21.1273 3.16447 21.1933 3.16447 21.1933H12.1715C14.1065 21.1933 13.7725 22.5273 13.7725 22.5273C13.7725 22.5273 11.3035 35.5373 11.0375 37.7383C10.7705 39.9413 9.16947 41.3423 9.16947 41.3423C9.16947 41.3423 7.03447 42.5433 6.16747 43.0103C5.30047 43.4773 5.30047 45.2113 5.30047 45.2113H36.1895V44.4773C36.1895 43.0103 29.7175 41.3423 27.1165 41.0753C24.5145 40.8093 25.0485 39.0733 25.0485 39.0733L26.1155 31.2683H29.1175L30.2515 23.3953H27.2495L27.5805 20.6583L36.1895 20.5273C41.9945 19.9263 46.1975 16.4573 46.1975 16.4573V4.44726C41.5945 1.17826 34.2545 0.338257 34.2545 0.338257H2.36447ZM60.6485 8.35426H74.1365C74.7115 8.35426 75.1785 9.46626 75.1785 10.8383C75.1785 12.2103 74.7115 13.3223 74.1365 13.3223H60.6485C60.0275 15.6093 58.5765 17.2133 56.8865 17.2133H49.3445V4.46326H56.8865C58.5775 4.46326 60.0275 6.06726 60.6485 8.35426ZM7.16847 61.3383C5.30047 61.3383 5.30047 59.2873 5.30047 59.2873V48.2803H36.1895V59.3543C36.1895 61.1543 34.1885 61.3383 34.1885 61.3383H7.16847ZM36.2615 5.30726V5.27626C36.2615 4.72626 35.8115 4.27626 35.2615 4.27626H5.29247C4.74247 4.27626 4.29247 4.72626 4.29247 5.27626V5.30726C4.29247 5.85726 4.74247 6.30726 5.29247 6.30726H35.2615C35.8115 6.30726 36.2615 5.85726 36.2615 5.30726Z" fill="white"/>
</svg>
