<svg width="60" height="72" viewBox="0 0 60 72" fill="none" xmlns="http://www.w3.org/2000/svg">
<path fill-rule="evenodd" clip-rule="evenodd" d="M58.6016 20.5882C58.0351 19.8457 57.1477 19.4092 56.2056 19.4096H17.5356L15.0606 12.1257H3.31958C1.66273 12.1257 0.31958 13.4505 0.31958 15.0846C0.31958 16.7188 1.66273 18.0435 3.31958 18.0435H10.7436L24.2436 57.7767H49.4026C51.0594 57.7767 52.4026 56.4519 52.4026 54.8178C52.4026 53.1836 51.0594 51.8589 49.4026 51.8589H28.5606L26.8346 46.7804H49.9546C51.2926 46.7803 52.469 45.9065 52.8386 44.6382L59.0886 23.1861C59.3482 22.2927 59.1679 21.331 58.6016 20.5882ZM50.8206 30.1366H46.0106V25.3274H52.2216L50.8206 30.1366ZM33.2036 25.3274V30.1356H40.0106V25.3274H33.2036ZM40.0106 36.0544V40.8626H33.2036V36.0544H40.0106ZM27.2036 30.1356V25.3274H19.5466L21.1806 30.1356H27.2036ZM23.1906 36.0544H27.2036V40.8626H24.8246L23.1906 36.0544ZM46.0106 36.0544V40.8626H47.6956L49.0966 36.0544H46.0106Z" fill="white"/>
<path d="M27.6675 71.215C30.8602 71.215 33.4485 68.6622 33.4485 65.5132C33.4485 62.3642 30.8602 59.8114 27.6675 59.8114C24.4747 59.8114 21.8865 62.3642 21.8865 65.5132C21.8865 68.6622 24.4747 71.215 27.6675 71.215Z" fill="white"/>
<path d="M45.1055 71.215C48.2982 71.215 50.8865 68.6622 50.8865 65.5132C50.8865 62.3642 48.2982 59.8114 45.1055 59.8114C41.9127 59.8114 39.3245 62.3642 39.3245 65.5132C39.3245 68.6622 41.9127 71.215 45.1055 71.215Z" fill="white"/>
<path d="M29.5966 9.89073L37.1436 15.3075C37.5794 15.6214 38.126 15.7468 38.6576 15.6549C39.1892 15.563 39.6599 15.2617 39.9616 14.8203C40.6076 13.8971 40.3916 12.6188 39.4816 11.9649L37.1086 10.2626L46.5446 5.24229L51.1726 17.0917H55.5196L49.4756 1.61566C49.2686 1.07977 48.8408 0.655675 48.2986 0.448862C47.7613 0.246408 47.1611 0.28568 46.6556 0.556369L33.4076 7.60547L30.3856 5.43659C29.5167 4.81138 28.3012 4.9819 27.6436 5.82125L19.1626 16.4713C18.9924 16.6532 18.8553 16.8628 18.7576 17.0907H23.8636L29.5966 9.89073Z" fill="white"/>
</svg>
